<svg xmlns:mydata="http://www.w3.org/2000/svg" mydata:contrastcolor="F8A3BC" mydata:template="Default" mydata:presentation="2.5" mydata:layoutType="undefined" mydata:specialFontId="undefined" mydata:id1="894" mydata:id2="865" mydata:companyName="reserva el día" mydata:companyTagline="" version="1.1" xmlns="http://www.w3.org/2000/svg" xmlns:xlink="http://www.w3.org/1999/xlink" width="550" height="940"><g fill="#753bbd" fill-rule="nonzero" stroke="none" stroke-width="1" stroke-linecap="butt" stroke-linejoin="miter" stroke-miterlimit="10" stroke-dasharray="" stroke-dashoffset="0" font-family="none" font-weight="none" font-size="none" text-anchor="none" style="mix-blend-mode: normal"><g data-paper-data="{&quot;isGlobalGroup&quot;:true,&quot;bounds&quot;:{&quot;x&quot;:79.94549855993682,&quot;y&quot;:115.00000000000003,&quot;width&quot;:390.10900288012635,&quot;height&quot;:239.99999999999997}}"><g data-paper-data="{&quot;isPrimaryText&quot;:true}"><path d="M84.46945,354.34435c1.04903,0.32782 2.16363,0.45895 3.27823,0.45895c1.1146,0 2.55702,-0.26226 4.32726,-0.72121c1.77024,-0.52452 3.21266,-1.77024 4.39282,-3.73718c0.78677,-1.44242 1.90137,-3.93387 3.34379,-7.53992c0.06556,-0.19669 0.19669,-0.45895 0.26226,-0.65565c3.47492,6.03194 9.11347,12.65396 17.3746,12.65396c8.78565,0 15.5388,-12.52283 17.44017,-16.78452l0.59008,-1.37686c-0.39339,-0.19669 -0.72121,-0.26226 -1.1146,-0.26226c-1.50798,0 -3.67161,1.63911 -6.62202,4.85178c-2.88484,3.01597 -5.90081,6.16307 -8.98234,6.16307c-4.91734,0 -8.52339,-6.22863 -10.62146,-11.08041c1.77024,-0.26226 3.73718,-0.65565 6.03194,-1.18016c8.65452,-2.0325 15.07984,-6.35976 19.14485,-11.67049c4.065,-5.31073 5.37629,-10.62146 5.37629,-15.01428c0,-0.59008 -0.06556,-1.77024 -0.19669,-3.47492c-0.19669,-1.70468 -0.98347,-3.67161 -2.42589,-5.90081c-2.88484,-4.45839 -8.13,-7.40879 -15.73549,-7.47436c-15.66992,0.19669 -26.35694,8.06444 -30.42195,16.19444c-1.77024,3.34379 -1.83581,6.03194 -1.83581,7.14653c0,1.31129 0.26226,2.68815 0.85234,4.065c0.52452,1.37686 1.77024,2.42589 3.67161,3.1471c0.59008,-5.11403 2.42589,-9.37573 5.37629,-12.85065c2.9504,-3.40936 6.35976,-5.90081 10.1625,-7.40879c3.73718,-1.50798 7.27766,-2.22919 10.62146,-2.22919c0.52452,0 1.83581,0.06556 3.93387,0.19669c2.16363,0.13113 4.19613,1.18016 6.22863,3.1471c2.0325,1.90137 3.01597,4.39282 3.01597,7.34323c0,0.78677 -0.06556,1.63911 -0.19669,2.55702c-1.24573,6.35976 -5.63855,10.49033 -11.08041,12.85065c-5.50742,2.42589 -11.2771,3.47492 -15.01428,3.73718c4.9829,-10.68702 11.21154,-21.50517 17.30904,-23.79993c-0.52452,-0.85234 -1.24573,-1.83581 -2.16363,-2.81928c-1.83581,-2.0325 -3.54049,-2.0325 -3.99944,-2.0325c-1.1146,0 -2.29476,0.52452 -3.67161,1.50798c-1.63911,1.37686 -3.34379,3.54049 -5.24516,6.49089c-3.80274,5.83524 -7.60549,13.24404 -10.55589,19.34154c-0.32782,0.59008 -0.59008,1.18016 -0.85234,1.77024c-4.45839,9.2446 -8.3267,16.91565 -16.52226,20.58727c0.85234,1.90137 2.36032,3.21266 4.52395,3.80274z" data-paper-data="{&quot;glyphName&quot;:&quot;R&quot;,&quot;glyphIndex&quot;:0,&quot;firstGlyphOfWord&quot;:true,&quot;word&quot;:1}"></path><path d="M130.69245,345.36201c0.85234,2.16363 2.81928,3.34379 6.03194,3.40936c4.39282,-0.06556 8.85121,-2.88484 12.195,-6.49089c3.34379,-3.60605 4.45839,-6.49089 4.45839,-8.06444c0,-0.45895 -0.13113,-0.85234 -0.26226,-1.18016c-1.50798,2.29476 -3.34379,4.32726 -5.57299,6.0975c-2.29476,1.77024 -4.52395,2.75371 -6.81871,2.81928c-1.50798,-0.06556 -2.36032,-0.45895 -2.68815,-1.24573c-0.32782,-0.78677 -0.52452,-1.57355 -0.52452,-2.29476c0,-0.59008 0.13113,-1.24573 0.26226,-1.96694c5.24516,0 9.70355,-3.08153 12.78508,-7.08097c3.08153,-3.93387 3.60605,-6.94984 3.60605,-8.58895c0,-0.85234 -0.26226,-1.83581 -0.72121,-2.81928c-0.45895,-1.04903 -1.77024,-1.63911 -3.80274,-1.70468c-2.29476,0.06556 -4.72065,1.18016 -7.2121,3.34379c-2.49145,2.16363 -4.78621,4.85178 -6.81871,8.06444c-4.19613,6.42532 -5.44186,11.53936 -5.44186,14.48976c0,1.18016 0.19669,2.22919 0.52452,3.21266zM139.34697,332.18354c1.18016,-2.49145 2.62258,-4.65508 4.32726,-6.55645c1.63911,-1.83581 3.21266,-2.81928 4.65508,-2.88484c0.52452,0.06556 0.78677,0.39339 0.78677,0.98347c0,0.32782 -0.19669,0.98347 -0.52452,1.96694c-0.32782,0.98347 -1.31129,2.22919 -2.9504,3.73718c-1.63911,1.50798 -3.73718,2.42589 -6.2942,2.75371z" data-paper-data="{&quot;glyphName&quot;:&quot;e&quot;,&quot;glyphIndex&quot;:1,&quot;word&quot;:1}"></path><path d="M149.37834,340.31354c0.52452,2.62258 2.88484,9.04791 11.99831,9.04791c3.60605,0 6.22863,-1.90137 7.86774,-4.9829c1.57355,-3.08153 1.96694,-6.2942 1.96694,-8.85121c0,-0.72121 0,-1.37686 -0.06556,-2.09807c-0.13113,-1.37686 -0.19669,-2.68815 -0.19669,-3.86831c0,-0.9179 -0.06556,-3.1471 0.78677,-5.70411c0.85234,-2.55702 2.68815,-4.065 5.83524,-4.065c0,-0.19669 0.06556,-0.39339 0.06556,-0.59008c0,-1.37686 -0.39339,-4.32726 -5.24516,-4.32726c-11.08041,0 -17.70243,13.57186 -19.99718,18.88259c-0.32782,0.65565 -0.52452,1.18016 -0.72121,1.50798c-0.78677,1.37686 -1.57355,2.68815 -2.09807,3.47492l-0.39339,0.52452zM153.7056,339.6579c0.98347,-1.63911 2.0325,-3.54049 3.08153,-5.83524c2.0325,-4.45839 4.26169,-8.85121 7.34323,-10.94928c-0.13113,1.1146 -0.19669,2.36032 -0.19669,3.54049c0,1.31129 0.06556,2.55702 0.19669,3.93387c0.19669,2.9504 0.19669,4.45839 0.19669,4.65508c0,3.86831 -1.04903,7.14653 -5.37629,7.14653c-2.36032,0 -4.13057,-1.1146 -5.24516,-2.49145z" data-paper-data="{&quot;glyphName&quot;:&quot;s&quot;,&quot;glyphIndex&quot;:2,&quot;word&quot;:1}"></path><path d="M174.81739,345.36201c0.85234,2.16363 2.81928,3.34379 6.03194,3.40936c4.39282,-0.06556 8.85121,-2.88484 12.195,-6.49089c3.34379,-3.60605 4.45839,-6.49089 4.45839,-8.06444c0,-0.45895 -0.13113,-0.85234 -0.26226,-1.18016c-1.50798,2.29476 -3.34379,4.32726 -5.57299,6.0975c-2.29476,1.77024 -4.52395,2.75371 -6.81871,2.81928c-1.50798,-0.06556 -2.36032,-0.45895 -2.68815,-1.24573c-0.32782,-0.78677 -0.52452,-1.57355 -0.52452,-2.29476c0,-0.59008 0.13113,-1.24573 0.26226,-1.96694c5.24516,0 9.70355,-3.08153 12.78508,-7.08097c3.08153,-3.93387 3.60605,-6.94984 3.60605,-8.58895c0,-0.85234 -0.26226,-1.83581 -0.72121,-2.81928c-0.45895,-1.04903 -1.77024,-1.63911 -3.80274,-1.70468c-2.29476,0.06556 -4.72065,1.18016 -7.2121,3.34379c-2.49145,2.16363 -4.78621,4.85178 -6.81871,8.06444c-4.19613,6.42532 -5.44186,11.53936 -5.44186,14.48976c0,1.18016 0.19669,2.22919 0.52452,3.21266zM183.4719,332.18354c1.18016,-2.49145 2.62258,-4.65508 4.32726,-6.55645c1.63911,-1.83581 3.21266,-2.81928 4.65508,-2.88484c0.52452,0.06556 0.78677,0.39339 0.78677,0.98347c0,0.32782 -0.19669,0.98347 -0.52452,1.96694c-0.32782,0.98347 -1.31129,2.22919 -2.9504,3.73718c-1.63911,1.50798 -3.73718,2.42589 -6.2942,2.75371z" data-paper-data="{&quot;glyphName&quot;:&quot;e&quot;,&quot;glyphIndex&quot;:3,&quot;word&quot;:1}"></path><path d="M192.65094,344.77193c0.19669,2.75371 4.65508,4.72065 6.0975,4.72065c0.26226,0 0.45895,-0.06556 0.45895,-0.19669c0.45895,-7.08097 6.0975,-16.65339 12.3917,-23.60323c-3.08153,5.1796 -4.065,11.80162 -0.98347,13.89968c0.9179,0.65565 1.90137,0.98347 3.01597,0.98347c3.93387,0 8.85121,-4.26169 12.3917,-12.06388c0.26226,-0.45895 0.85234,-1.77024 0.52452,-1.77024c-0.19669,0 -0.45895,0.19669 -1.04903,0.78677c-2.42589,2.42589 -7.2121,7.53992 -8.91678,6.62202c-2.62258,-1.44242 4.91734,-12.91621 7.27766,-15.21097c-1.44242,-1.24573 -3.27823,-2.55702 -5.31073,-2.55702c-0.78677,0 -1.44242,0.19669 -2.09807,0.59008c-2.09807,0.39339 -8.52339,8.52339 -9.50686,8.72008c1.31129,-3.01597 2.22919,-4.72065 3.86831,-7.60549c-0.9179,-1.04903 -2.55702,-2.49145 -4.065,-2.36032c-1.04903,0.06556 -2.0325,0.78677 -2.49145,1.63911c-2.9504,5.04847 -5.24516,10.49033 -7.47436,15.66992c-0.98347,2.29476 -2.22919,4.58952 -3.1471,6.88428c-0.59008,1.50798 -1.04903,3.21266 -0.98347,4.85178z" data-paper-data="{&quot;glyphName&quot;:&quot;r&quot;,&quot;glyphIndex&quot;:4,&quot;word&quot;:1}"></path><path d="M220.12248,343.46064c0.26226,3.47492 1.96694,5.70411 5.63855,5.70411c9.04791,0 18.62033,-22.88202 21.17735,-29.50404l0.59008,-1.70468l-0.19669,-0.26226c-0.59008,-0.72121 -1.37686,-1.50798 -2.36032,-1.50798c-0.26226,0 -1.44242,-0.26226 -2.81928,2.62258c-0.32782,0.72121 -0.78677,1.63911 -1.24573,2.75371c-1.57355,3.67161 -3.73718,8.52339 -6.16307,12.91621c-2.42589,4.39282 -4.91734,7.67105 -7.01541,7.67105c-0.72121,0 -1.1146,-0.52452 -1.1146,-1.50798c0,-0.19669 -0.13113,-1.1146 1.04903,-4.78621c1.70468,-5.44186 5.63855,-12.98178 8.45783,-17.24347l-0.52452,-0.45895c-0.39339,-0.32782 -0.9179,-0.72121 -1.50798,-1.04903c-1.31129,-0.72121 -2.29476,-0.78677 -2.68815,-0.78677c-1.1146,0 -2.49145,0.39339 -3.73718,2.49145c-1.90137,3.34379 -3.86831,7.67105 -5.44186,12.195c-1.57355,4.52395 -2.16363,8.19557 -2.16363,10.81815c0,0.52452 0,1.1146 0.06556,1.63911z" data-paper-data="{&quot;glyphName&quot;:&quot;v&quot;,&quot;glyphIndex&quot;:5,&quot;word&quot;:1}"></path><path d="M241.62765,343.91959c0.26226,3.1471 1.96694,5.24516 5.57299,5.24516c3.34379,0 6.49089,-3.1471 8.91678,-6.81871c0,0.19669 0,0.32782 0,0.52452c0,3.47492 0.9179,6.0975 4.91734,6.22863c3.08153,-0.06556 6.49089,-2.88484 8.91678,-6.55645c2.36032,-3.67161 2.55702,-6.03194 2.55702,-7.08097c0,-1.04903 -0.26226,-1.96694 -0.78677,-2.75371l-0.65565,1.37686c-1.1146,2.42589 -4.065,7.34323 -6.62202,7.34323c-0.52452,0 -0.78677,-0.39339 -0.78677,-1.18016c0,-0.78677 0.19669,-2.81928 2.36032,-7.80218c2.16363,-4.9829 5.44186,-10.3592 8.58895,-13.50629l-0.52452,-0.52452c-0.39339,-0.32782 -0.9179,-0.65565 -1.50798,-1.04903c-1.24573,-0.78677 -2.42589,-1.04903 -3.21266,-1.04903c-0.78677,0 -1.96694,0.06556 -3.34379,1.70468c-0.45895,0.59008 -0.9179,1.24573 -1.37686,2.0325c-0.19669,-2.55702 -1.37686,-4.26169 -4.52395,-4.26169c-4.065,0 -8.98234,4.78621 -12.58839,10.55589c-1.24573,1.96694 -2.36032,3.99944 -3.27823,6.0975c-1.90137,4.26169 -2.68815,7.80218 -2.68815,10.42476c0,0.32782 0.06556,0.72121 0.06556,1.04903zM249.10201,340.11685c0.19669,-2.68815 1.63911,-6.88428 3.73718,-10.81815c2.09807,-3.86831 4.65508,-6.88428 6.81871,-6.88428c1.24573,0 1.1146,1.04903 1.1146,1.57355c0,1.1146 -0.9179,4.26169 -1.77024,6.0975l-0.39339,0.9179c-0.06556,0.19669 -0.19669,0.39339 -0.26226,0.59008c-1.57355,3.27823 -5.04847,10.49033 -8.19557,10.49033c-0.72121,0 -1.04903,-0.52452 -1.04903,-1.57355c0,-0.13113 0,-0.26226 0,-0.39339z" data-paper-data="{&quot;glyphName&quot;:&quot;a&quot;,&quot;glyphIndex&quot;:6,&quot;lastGlyphOfWord&quot;:true,&quot;word&quot;:1}"></path><path d="M294.01372,344.31298c0.78677,5.96637 4.78621,10.68702 12.91621,10.68702c9.70355,0 19.86606,-11.47379 25.11122,-22.29194c0.26226,-0.59008 0.45895,-1.18016 0.45895,-1.70468c0,-0.06556 0.06556,-0.78677 -0.39339,-1.70468c-0.45895,-0.9179 -1.1146,-1.57355 -1.57355,-1.90137l-0.32782,-0.26226c-1.1146,2.29476 -12.3917,20.12831 -21.57073,20.12831c-1.63911,0 -2.88484,-0.59008 -3.86831,-1.70468c-1.90137,-2.22919 -1.90137,-4.72065 -1.90137,-5.70411c0,-1.31129 0.26226,-2.81928 0.78677,-4.52395c1.1146,-3.40936 4.19613,-7.40879 9.37573,-9.83468c-1.31129,-1.44242 -1.96694,-3.1471 -1.96694,-5.04847c0,-0.26226 0,-0.98347 0.13113,-2.22919c0.06556,-1.24573 0.78677,-3.01597 2.09807,-5.44186c1.31129,-2.36032 2.9504,-4.58952 4.91734,-6.68758c3.86831,-4.13057 8.39226,-7.01541 11.60492,-7.01541c0.9179,0 1.37686,0.52452 1.37686,1.50798c0,0.06556 0.32782,0.85234 -1.18016,4.065c-2.16363,4.78621 -7.47436,11.14597 -13.89968,14.03081c0.72121,1.57355 1.70468,2.55702 2.9504,2.9504c1.18016,0.39339 2.16363,0.59008 2.9504,0.59008c1.1146,0 2.62258,-0.32782 4.39282,-1.04903c1.77024,-0.72121 3.60605,-2.49145 5.57299,-5.31073c1.24573,-1.77024 2.29476,-3.67161 3.21266,-5.70411c1.83581,-4.065 2.42589,-7.47436 2.42589,-9.83468c0,-0.59008 -0.06556,-1.50798 -0.26226,-2.62258c-0.26226,-2.29476 -2.29476,-4.78621 -6.42532,-4.78621c-6.35976,0 -12.52283,2.88484 -17.30904,7.2121c-2.42589,2.16363 -4.39282,4.58952 -6.03194,7.27766c-3.21266,5.37629 -3.67161,9.44129 -3.67161,11.73605c0,1.50798 0.19669,2.9504 0.65565,4.39282c-3.67161,1.57355 -6.55645,4.65508 -8.39226,8.52339c-1.90137,3.93387 -2.29476,7.34323 -2.29476,9.76912c0,0.85234 0,1.63911 0.13113,2.49145z" data-paper-data="{&quot;glyphName&quot;:&quot;E&quot;,&quot;glyphIndex&quot;:7,&quot;firstGlyphOfWord&quot;:true,&quot;word&quot;:2}"></path><path d="M332.5001,347.52564c0.78677,1.04903 2.09807,1.57355 3.93387,1.57355c3.08153,0 6.49089,-2.88484 8.91678,-6.55645c2.36032,-3.60605 2.55702,-6.03194 2.55702,-7.08097c0,-1.04903 -0.26226,-1.90137 -0.78677,-2.68815l-0.65565,1.31129c-1.1146,2.62258 -3.99944,7.34323 -6.62202,7.34323c-0.39339,0 -0.52452,-0.32782 -0.52452,-0.98347c0,-1.31129 0.78677,-4.9829 4.52395,-12.85065c1.83581,-3.86831 4.065,-7.86774 6.68758,-11.99831c2.62258,-4.065 5.44186,-7.67105 8.39226,-10.75258l-0.52452,-0.45895c-1.31129,-1.18016 -3.40936,-2.09807 -4.65508,-2.09807c-0.78677,0 -1.96694,0.06556 -3.34379,1.63911c-2.62258,3.01597 -7.27766,10.22807 -11.2771,17.83355c-2.75371,5.24516 -5.1796,10.49033 -6.55645,15.14541c-1.31129,4.72065 -1.1146,6.42532 -1.1146,6.75315c0,1.63911 0.39339,2.88484 1.04903,3.86831z" data-paper-data="{&quot;glyphName&quot;:&quot;l&quot;,&quot;glyphIndex&quot;:8,&quot;lastGlyphOfWord&quot;:true,&quot;word&quot;:2}"></path><path d="M369.87189,344.05072c2.22919,5.63855 8.98234,10.49033 19.73493,10.49033c11.60492,0 22.29194,-6.81871 29.63517,-15.93218c2.42589,-3.08153 4.52395,-6.2942 6.22863,-9.70355c3.40936,-6.81871 4.72065,-12.91621 4.72065,-17.76799c0,-0.65565 -0.06556,-1.96694 -0.26226,-3.86831c-0.13113,-1.90137 -0.9179,-3.99944 -2.29476,-6.42532c-2.88484,-4.78621 -8.26113,-7.73662 -16.71896,-7.73662c-3.60605,0 -7.08097,0.45895 -10.49033,1.44242c-6.81871,1.90137 -12.195,5.83524 -15.01428,11.93275c-1.63911,3.93387 -1.70468,5.96637 -1.70468,7.27766c0,1.24573 0.26226,3.01597 1.18016,4.32726c0.9179,1.37686 1.96694,2.16363 2.68815,2.49145l0.52452,0.19669c0.52452,-3.86831 1.96694,-7.40879 4.26169,-10.75258c2.29476,-3.27823 5.11403,-5.96637 8.45783,-7.99887c3.34379,-2.0325 6.68758,-3.08153 10.1625,-3.08153c2.88484,0 5.24516,0.65565 7.01541,2.0325c3.60605,2.68815 4.78621,7.08097 4.78621,11.53936c0,0.52452 -0.06556,1.57355 -0.19669,3.27823c-0.06556,1.63911 -0.65565,3.99944 -1.63911,7.01541c-1.04903,3.01597 -2.42589,5.90081 -4.19613,8.72008c-5.31073,8.45783 -13.96525,15.14541 -24.65227,15.14541c-3.1471,0 -6.03194,-0.39339 -8.72008,-1.24573c-5.31073,-1.63911 -6.81871,-4.32726 -6.81871,-6.2942c0,-0.85234 0.26226,-1.83581 0.78677,-2.81928c0.85234,-1.50798 2.09807,-2.36032 3.73718,-2.68815c1.57355,-0.32782 2.9504,-0.52452 4.13057,-0.52452c1.18016,0 2.36032,0.13113 3.60605,0.32782c-2.29476,3.21266 -4.65508,5.50742 -7.08097,6.81871c2.9504,1.83581 5.50742,2.22919 6.88428,2.22919c0.98347,0 2.09807,-0.26226 3.34379,-0.65565c1.24573,-0.45895 2.49145,-1.63911 3.60605,-3.60605c0.26226,-0.52452 0.59008,-1.18016 0.9179,-1.90137c1.77024,1.1146 2.88484,2.49145 3.47492,3.99944c1.18016,-1.37686 1.77024,-2.68815 1.77024,-3.93387c0,-0.26226 -0.13113,-0.85234 -0.32782,-1.77024c-0.19669,-0.9179 -1.04903,-1.96694 -2.62258,-3.1471c1.37686,-3.08153 3.08153,-6.35976 4.9829,-9.90025c1.90137,-3.54049 4.13057,-6.75315 6.55645,-9.63799c2.42589,-2.88484 5.11403,-4.91734 7.99887,-6.0975c-0.52452,-0.85234 -1.24573,-1.83581 -2.16363,-2.81928c-1.83581,-2.0325 -3.47492,-2.0325 -3.99944,-2.0325c-1.1146,0 -2.29476,0.52452 -3.67161,1.57355c-3.47492,2.9504 -6.75315,8.58895 -10.09694,14.94871c-1.31129,2.42589 -2.68815,4.91734 -4.13057,7.34323c-0.78677,1.31129 -1.50798,2.49145 -2.16363,3.60605c-1.70468,-0.32782 -3.40936,-0.52452 -5.11403,-0.52452c-7.40879,0 -12.45726,2.09807 -15.21097,5.24516c-1.37686,1.57355 -2.22919,2.9504 -2.42589,4.19613c-0.19669,1.24573 -0.26226,2.09807 -0.26226,2.68815c0,1.31129 0.26226,2.68815 0.78677,3.99944z" data-paper-data="{&quot;glyphName&quot;:&quot;D&quot;,&quot;glyphIndex&quot;:9,&quot;firstGlyphOfWord&quot;:true,&quot;word&quot;:3}"></path><path d="M423.89707,344.24742c0.19669,2.9504 1.77024,4.85178 5.50742,4.85178c3.1471,0 6.55645,-2.88484 8.91678,-6.55645c2.36032,-3.60605 2.55702,-6.03194 2.55702,-7.14653c0,-0.98347 -0.26226,-1.90137 -0.72121,-2.62258l-0.65565,1.31129c-1.24573,2.62258 -3.93387,7.34323 -6.62202,7.34323c-0.52452,0 -0.78677,-0.39339 -0.78677,-1.18016c0,-0.78677 0.19669,-2.75371 2.36032,-7.80218c2.16363,-4.9829 5.37629,-10.29363 8.58895,-13.50629l-0.52452,-0.59008c-0.39339,-0.45895 -0.85234,-0.9179 -1.44242,-1.44242c-1.18016,-0.98347 -2.36032,-1.31129 -3.08153,-1.31129c-0.78677,0 -2.0325,0.13113 -3.54049,2.42589c-1.31129,2.16363 -3.21266,5.50742 -5.1796,9.37573c-3.08153,5.90081 -5.37629,12.32613 -5.37629,16.12888c0,0.26226 0,0.52452 0,0.72121zM437.27223,310.02273c0.19669,1.1146 0.98347,2.09807 2.42589,3.08153c1.90137,-1.83581 3.86831,-2.55702 5.96637,-3.1471c1.24573,-0.39339 2.49145,-0.9179 3.60605,-1.50798c1.77024,-1.04903 2.0325,-2.09807 2.0325,-2.9504c0,-0.13113 0,-0.39339 -0.06556,-0.78677c-0.19669,-0.72121 -0.85234,-1.83581 -1.37686,-2.36032l-0.39339,-0.45895c-2.55702,2.16363 -5.24516,3.34379 -7.60549,4.13057c-0.85234,0.32782 -1.70468,0.72121 -2.49145,1.04903c-1.44242,0.72121 -2.16363,1.57355 -2.16363,2.55702c0,0.13113 0.06556,0.26226 0.06556,0.39339z" data-paper-data="{&quot;glyphName&quot;:&quot;í&quot;,&quot;glyphIndex&quot;:10,&quot;word&quot;:3}"></path><path d="M437.07554,343.91959c0.26226,3.1471 1.96694,5.24516 5.57299,5.24516c3.34379,0 6.49089,-3.1471 8.91678,-6.81871c0,0.19669 0,0.32782 0,0.52452c0,3.47492 0.9179,6.0975 4.91734,6.22863c3.08153,-0.06556 6.49089,-2.88484 8.91678,-6.55645c2.36032,-3.67161 2.55702,-6.03194 2.55702,-7.08097c0,-1.04903 -0.26226,-1.96694 -0.78677,-2.75371l-0.65565,1.37686c-1.1146,2.42589 -4.065,7.34323 -6.62202,7.34323c-0.52452,0 -0.78677,-0.39339 -0.78677,-1.18016c0,-0.78677 0.19669,-2.81928 2.36032,-7.80218c2.16363,-4.9829 5.44186,-10.3592 8.58895,-13.50629l-0.52452,-0.52452c-0.39339,-0.32782 -0.9179,-0.65565 -1.50798,-1.04903c-1.24573,-0.78677 -2.42589,-1.04903 -3.21266,-1.04903c-0.78677,0 -1.96694,0.06556 -3.34379,1.70468c-0.45895,0.59008 -0.9179,1.24573 -1.37686,2.0325c-0.19669,-2.55702 -1.37686,-4.26169 -4.52395,-4.26169c-4.065,0 -8.98234,4.78621 -12.58839,10.55589c-1.24573,1.96694 -2.36032,3.99944 -3.27823,6.0975c-1.90137,4.26169 -2.68815,7.80218 -2.68815,10.42476c0,0.32782 0.06556,0.72121 0.06556,1.04903zM444.5499,340.11685c0.19669,-2.68815 1.63911,-6.88428 3.73718,-10.81815c2.09807,-3.86831 4.65508,-6.88428 6.81871,-6.88428c1.24573,0 1.1146,1.04903 1.1146,1.57355c0,1.1146 -0.9179,4.26169 -1.77024,6.0975l-0.39339,0.9179c-0.06556,0.19669 -0.19669,0.39339 -0.26226,0.59008c-1.57355,3.27823 -5.04847,10.49033 -8.19557,10.49033c-0.72121,0 -1.04903,-0.52452 -1.04903,-1.57355c0,-0.13113 0,-0.26226 0,-0.39339z" data-paper-data="{&quot;glyphName&quot;:&quot;a&quot;,&quot;glyphIndex&quot;:11,&quot;lastGlyphOfWord&quot;:true,&quot;word&quot;:3}"></path></g><g data-paper-data="{&quot;fillRule&quot;:&quot;nonzero&quot;,&quot;fillRuleOriginal&quot;:&quot;evenodd&quot;,&quot;isIcon&quot;:&quot;true&quot;,&quot;iconStyle&quot;:&quot;standalone&quot;,&quot;selectedEffects&quot;:{&quot;container&quot;:&quot;&quot;,&quot;transformation&quot;:&quot;&quot;,&quot;pattern&quot;:&quot;&quot;},&quot;bounds&quot;:{&quot;x&quot;:198.50828513576943,&quot;y&quot;:115.00000000000003,&quot;width&quot;:152.98342972846115,&quot;height&quot;:145.29474363860513},&quot;iconType&quot;:&quot;initial&quot;,&quot;isDetailed&quot;:true,&quot;source&quot;:&quot;noun&quot;,&quot;rawIconId&quot;:&quot;2730179&quot;,&quot;initialText&quot;:&quot;R&quot;,&quot;rawInitialId&quot;:1082,&quot;monogramSpecial&quot;:&quot;colorful-dahlia&quot;,&quot;suitableAsStandaloneIcon&quot;:true}"><path d="M302.66718,240.00229c-0.01837,1.39739 -0.34862,2.75899 -0.40762,4.15879c-0.10687,2.53028 -0.92015,4.84635 -2.49112,6.8786c-0.33653,0.43518 -0.54784,0.37424 -0.89065,0.05608c-11.62873,-10.79127 -16.10955,-37.46969 -26.5672,-51.94832c-4.45857,-6.17266 -8.65941,-6.72823 -8.85138,-7.16533c1.54147,-0.79733 6.08176,-2.6826 10.92038,-6.75918c11.4068,-9.61051 22.26577,-21.42444 29.7251,-35.94224c10.95665,-21.32581 1.98969,-34.46748 -14.4356,-32.80465c-22.53074,2.28078 -29.04042,43.08775 -30.66409,46.28143c0,-35.59603 4.80526,-43.70617 -1.14402,-45.27859c-1.55211,-0.41052 -3.13179,-0.47579 -4.70614,-0.27464c-4.91551,0.6281 -7.68222,0.87179 -9.12118,36.92719c-1.07729,26.99028 -1.02989,71.87723 7.55313,97.503c0.96318,2.876 2.92241,7.50428 5.85692,8.27985c2.26144,0.59763 5.80712,0.52268 7.90803,-0.44968c3.33196,-1.54147 -0.5343,-4.13315 -4.17425,-37.42133c-1.39303,-12.7423 -1.90703,-19.40379 -1.53663,-25.64995c0.12379,-2.08641 0.08269,-2.08109 0.31188,-1.92201c12.59724,8.76532 10.25166,65.15528 41.59994,61.08111c7.48736,-0.97334 9.47561,-11.0137 7.84468,-15.22858c-0.97574,-2.5206 -6.71324,-1.61884 -6.73016,-0.32155zM260.15917,188.56989c0.64841,-7.34135 1.67928,-15.09947 3.09938,-21.9186c3.33052,-15.99544 11.74914,-41.20927 26.12864,-46.04353c1.48393,-0.49899 3.29812,2.9906 3.86674,4.49435c2.67921,7.087 -0.81281,17.33432 -3.7913,24.32026c-10.67476,25.03346 -28.33109,39.39363 -29.30346,39.14752zM321.88916,183.55527c-17.37155,2.78655 -24.75446,10.28502 -41.9829,8.69181c-7.8824,-0.72914 -7.87465,-1.41914 -8.07871,-0.41003c-0.17939,0.88678 0.12426,0.97864 1.19334,1.16384c15.34703,2.65696 47.83595,16.41804 62.77827,16.0936c21.34128,1.0449 24.66937,-31.72736 -13.91,-25.53922zM282.96117,187.69713c-0.85536,0.44387 0.36554,1.96407 1.21654,1.49602c1.51439,-0.83312 6.39072,1.20881 20.11263,-3.65206c9.23143,-3.27007 39.66633,-19.56432 36.67575,-30.87008c-1.62222,-6.13253 -8.30064,-9.46158 -17.68439,-5.80712c-23.01426,8.96404 -27.60823,32.23942 -40.32055,38.83323zM298.62829,228.81645c2.57476,2.37216 5.23318,4.60797 8.42975,6.10981c15.30401,7.1895 23.26135,-9.01336 -0.15859,-24.85214c-13.97916,-9.45386 -27.93074,-11.97398 -28.7885,-12.6456c-1.53906,-1.20445 -3.10277,0.851 -2.09946,1.47957c9.12893,5.72057 10.03988,18.32071 22.61682,29.90834zM240.68091,195.3924c1.42493,-1.56709 2.4766,-2.25563 1.71263,-3.41949c-0.43518,-0.66291 -3.10133,0.58747 -4.25935,0.90757c-13,3.59259 -34.41527,6.93953 -34.92635,20.01836c0.12813,7.19193 9.37843,14.53375 20.81472,3.34452c6.38927,-6.25148 10.33821,-13.90179 16.65835,-20.85099zM240.9241,191.18236c0.9124,-0.11702 1.02072,-1.77792 0.00919,-1.89589c-2.52254,-0.29302 -20.57442,-11.29124 -30.41604,-11.55622c-10.5882,-0.28432 -14.00138,8.76532 -8.73389,13.6697c8.58109,7.99023 36.63465,0.10444 39.14075,-0.21759zM239.98801,187.2629c0.38101,0.15086 0.5928,0.08171 0.72576,-0.28672c0.84035,-2.32672 -1.94811,-1.4641 -5.84628,-6.44489c-5.88061,-7.51395 -6.5087,-12.91879 -10.79031,-18.76894c-12.12096,-16.56165 -26.02662,-3.27684 -15.15459,7.6653c6.36656,6.40813 22.32041,14.37322 31.06543,17.83525zM226.71771,159.0648c2.96883,11.92803 9.42919,20.65081 13.18665,23.35418c1.78807,1.28665 1.66332,-1.77404 0.95012,-3.11003c-1.69571,-3.17675 0.68127,-20.82294 1.04247,-30.08387c1.06037,-18.36519 -19.39607,-7.10392 -15.17926,9.8397zM225.66072,235.25648c10.48424,-5.61709 15.8151,-25.85641 16.50603,-36.5273c0.04206,-0.64694 -0.12185,-0.83844 -0.75479,-1.01733c-0.73157,-0.20646 -0.86743,-0.15763 -1.22137,0.44629c-8.63911,14.74119 -23.93537,26.11075 -23.8261,33.40083c-0.00628,4.45131 5.33471,5.81921 9.29622,3.6975zM240.07408,201.64676c0.07205,-0.08316 0.16004,-0.0411 0,0zM240.03926,201.70625c0.02369,0.07011 0.02031,0.06044 -0.01837,0.05464c0.00387,-0.02175 0.01111,-0.03772 0.01837,-0.05464zM313.10836,210.0915c-0.46273,-0.06962 -0.76541,-0.02514 -0.99171,0.4168c-1.22186,2.38716 2.27787,1.75568 9.12506,10.11919c3.05586,3.73281 6.79061,9.2938 11.79507,11.00645c4.7158,1.61401 7.95203,-2.35669 8.23296,-6.65716c-0.9419,-11.74769 -16.33246,-13.10736 -28.16137,-14.88528zM242.41142,217.81532c-0.1378,-0.56862 -0.54252,-0.455 -0.89791,-0.46032c-0.37473,-0.00581 -0.73206,0.04497 -0.77073,0.57055c-0.62664,8.55401 -12.87043,19.41782 -11.56492,27.59758c1.03281,6.47051 8.33063,6.10883 11.16843,2.85955c5.29748,-6.06434 3.88898,-23.04087 2.06513,-30.56739zM324.24536,179.49655c-0.42839,0.20695 -0.61553,0.45113 -0.34717,0.85053c0.65518,0.9743 1.71312,0.60101 3.29231,0.47192c11.54461,-0.94384 24.76511,3.34646 24.14524,-5.70219c-0.32444,-4.73465 -5.1795,-8.58496 -10.53211,-6.12768c-5.67416,2.60522 -9.58246,7.13778 -16.55827,10.50745zM314.02561,137.40244c-3.68252,5.19015 -4.60557,11.78492 -5.98555,15.1928c-0.20211,0.49948 0.82489,1.21315 1.55017,0.55655c5.98457,-5.41546 18.82647,-6.52128 18.74137,-14.58259c-0.08413,-4.255 -8.60477,-9.20194 -14.306,-1.16674zM224.65837,148.45772c1.94183,-0.95351 0.47965,-2.37459 3.07764,-4.75981c2.76043,-2.53462 4.64328,-4.10848 6.03776,-6.16008c2.8673,-4.21778 1.04392,-9.2822 -3.29182,-7.9206c-9.47706,2.97609 -7.31861,19.574 -5.82355,18.8405zM265.12011,133.90803c0.51398,0.00483 0.49706,-0.0411 1.04635,-1.03909c3.57082,-6.49178 6.04404,-7.40903 10.15786,-11.13748c1.89977,-1.72183 3.84788,-4.24049 1.75035,-5.71525c-2.46983,-1.73633 -6.03243,-1.43752 -8.91036,2.38667c-5.0151,6.66442 -4.8918,14.12179 -5.15823,14.38482c-0.6015,0.59377 0.51012,1.12467 1.11403,1.12033zM222.91141,157.34103c0.52656,0.32348 0.85487,-0.02369 1.19768,-0.33847c0.31188,-0.28672 0.49416,-0.57877 0.16489,-0.98833c-1.68894,-2.10189 -0.84327,-12.99324 -6.33949,-13.3675c-4.68583,-0.0208 -7.25817,7.17258 4.97691,14.69427zM241.34816,139.17022c0.21372,0.7983 1.18802,0.57443 1.4999,-0.83214c5.04363,-22.72222 -8.34851,-15.36203 -6.66005,-8.31371c1.03475,4.32029 4.04178,4.9711 5.16017,9.14585zM323.49735,228.10518c-0.35298,-0.39408 -0.70837,-0.03867 -1.02798,0.14265c-0.95302,0.54058 0.74462,0.67694 0.42018,5.45754c-0.02031,5.30715 1.2441,11.84682 5.35067,10.22893c2.07625,-0.81813 3.27151,-2.73963 2.44372,-5.50298c-1.70345,-5.68382 -6.43714,-9.48915 -7.18661,-10.32612zM244.53215,243.86756c-0.49222,3.18303 -2.33059,4.7453 -3.50409,8.08886c-2.75609,7.85194 13.74705,9.74397 5.39854,-8.32337c-0.43131,-0.93271 -1.73584,-0.79202 -1.89445,0.23451zM212.14576,198.80364c0.80894,-0.35152 0.84568,-0.69917 0.17745,-1.30649c-0.20839,-0.18905 -0.43324,-0.31718 -0.73108,-0.33459c-3.46591,-0.19873 -5.33036,-1.83062 -8.46746,-1.76294c-7.98201,-0.28915 -4.35075,10.16319 1.39352,7.96654c2.64245,-1.01105 4.99479,-3.41803 7.62759,-4.56252zM206.91113,176.38073c1.5318,0.07882 4.27821,-0.99654 5.63111,-0.78331c0.3728,0.05898 0.96995,-1.1387 0.10155,-1.67492c-1.8543,-1.14498 -3.30489,-2.71982 -4.7453,-4.31641c-7.37325,-8.17251 -11.44887,6.74419 -0.98736,6.77465zM313.1601,238.52945c-1.306,0.48884 0.0643,0.70111 -1.88768,8.32094c-0.98058,3.82757 -0.42695,7.42644 2.51481,6.32835c2.40215,-0.89646 3.09794,-3.08874 3.08971,-5.67464c-0.10493,-2.64439 -1.52744,-9.79426 -3.71685,-8.97468zM313.71808,241.08487l0.01015,0.03144c-0.03626,-0.00532 -0.03239,0.00338 -0.01015,-0.03144zM341.90993,211.17701c-2.49644,0.02805 -4.24871,0.60972 -5.60549,0.7572c-0.84617,0.09187 -0.90902,1.18318 -0.33025,1.43703c3.01961,1.3239 7.58793,8.66474 10.90636,4.8009c1.85141,-2.15505 1.46073,-6.97145 -4.97062,-6.99514zM229.6846,234.70236c-1.20445,0.23257 -1.38626,1.18367 -4.22504,2.06658c-2.06369,0.64115 -3.76617,0.90129 -5.11907,2.57862c-1.65994,2.05836 -0.03626,4.02001 2.57621,4.0176c4.09641,-0.02611 6.06919,-4.18538 7.36889,-8.08209c0.14893,-0.44725 -0.0938,-0.67887 -0.60101,-0.58071zM311.90053,135.70864c1.04731,0.06577 0.40326,-0.02562 2.86053,-2.7174c4.36622,-4.78301 2.65793,-7.23641 0.01258,-7.23835c-4.07224,-0.16295 -4.24436,5.25493 -3.35469,9.51382c0.05415,0.26014 0.19486,0.42405 0.48158,0.44193zM317.88412,238.51057c0.66629,2.57187 0.0029,12.17415 2.90114,11.55862c5.04992,-1.07246 -0.1117,-10.70521 -1.73248,-12.1993c-0.52511,-0.4845 -1.31905,0.05996 -1.16869,0.64066zM264.20285,123.07997c0.57298,-0.00483 0.22193,-0.64937 1.2296,-1.98438c4.19795,-5.55907 -1.01444,-6.18232 -2.19133,-5.13453c-2.72901,2.43067 -0.67017,7.13197 0.96174,7.11892z" data-paper-data="{&quot;isPathIcon&quot;:true}"></path></g></g></g></svg>