<?xml version="1.0" standalone="no"?><svg xmlns="http://www.w3.org/2000/svg" viewBox="0 0 1440 320"><path fill="#d7b8e8" fill-opacity="1" d="M0,288L24,293.3C48,299,96,309,144,277.3C192,245,240,171,288,165.3C336,160,384,224,432,240C480,256,528,224,576,197.3C624,171,672,149,720,138.7C768,128,816,128,864,122.7C912,117,960,107,1008,133.3C1056,160,1104,224,1152,245.3C1200,267,1248,245,1296,250.7C1344,256,1392,288,1416,304L1440,320L1440,0L1416,0C1392,0,1344,0,1296,0C1248,0,1200,0,1152,0C1104,0,1056,0,1008,0C960,0,912,0,864,0C816,0,768,0,720,0C672,0,624,0,576,0C528,0,480,0,432,0C384,0,336,0,288,0C240,0,192,0,144,0C96,0,48,0,24,0L0,0Z"></path></svg>